<svg width="30" height="29" viewBox="0 0 30 29" fill="none" xmlns="http://www.w3.org/2000/svg">
<path d="M5.86227 5.12423C6.04858 4.40382 6.14174 4.04362 6.41206 3.83431C6.68239 3.625 7.05445 3.625 7.79856 3.625H22.2014C22.9456 3.625 23.3176 3.625 23.5879 3.83431C23.8583 4.04362 23.9514 4.40382 24.1377 5.12423L25.7067 11.191C25.9068 11.9647 26.0068 12.3515 25.8919 12.6505C25.8216 12.8334 25.6991 12.9916 25.5396 13.1055C25.2789 13.2917 24.8793 13.2917 24.0803 13.2917H23.9864C22.9892 13.2917 22.4906 13.2917 22.0882 13.1037C21.7686 12.9544 21.4942 12.7233 21.2928 12.4337C21.0392 12.0691 20.9545 11.5778 20.7851 10.5951C20.7388 10.3265 20.7156 10.1922 20.6752 10.1687C20.6442 10.1507 20.6058 10.1507 20.5748 10.1687C20.5344 10.1922 20.5112 10.3265 20.4649 10.5951L20.3717 11.136C20.291 11.6041 20.2506 11.8381 20.1729 12.0329C19.9252 12.6536 19.3839 13.1096 18.7302 13.2482C18.525 13.2917 18.2875 13.2917 17.8125 13.2917C17.3375 13.2917 17.1 13.2917 16.8948 13.2482C16.2411 13.1096 15.6998 12.6536 15.4521 12.0329C15.3744 11.8381 15.334 11.6041 15.2533 11.136L15.1601 10.5951C15.1138 10.3265 15.0906 10.1922 15.0502 10.1687C15.0192 10.1507 14.9808 10.1507 14.9498 10.1687C14.9094 10.1922 14.8862 10.3265 14.8399 10.5951L14.7467 11.136C14.666 11.6041 14.6256 11.8381 14.5479 12.0329C14.3002 12.6536 13.7589 13.1096 13.1052 13.2482C12.9 13.2917 12.6625 13.2917 12.1875 13.2917C11.7125 13.2917 11.475 13.2917 11.2698 13.2482C10.6161 13.1096 10.0748 12.6536 9.82711 12.0329C9.74939 11.8381 9.70904 11.6041 9.62833 11.136L9.53507 10.5951C9.48876 10.3265 9.46561 10.1922 9.42521 10.1687C9.39416 10.1507 9.35584 10.1507 9.32479 10.1687C9.28439 10.1922 9.26124 10.3265 9.21493 10.5951C9.0455 11.5778 8.96078 12.0691 8.70719 12.4337C8.50577 12.7233 8.23137 12.9544 7.9118 13.1037C7.50943 13.2917 7.01082 13.2917 6.0136 13.2917H5.91975C5.12067 13.2917 4.72113 13.2917 4.4604 13.1055C4.30094 12.9916 4.17844 12.8334 4.10813 12.6505C3.99316 12.3515 4.09319 11.9647 4.29327 11.191L5.86227 5.12423Z" fill="white"/>
<path fill-rule="evenodd" clip-rule="evenodd" d="M6.26035 14.7916C6.25 15.1651 6.25 15.5923 6.25 16.0833V24.5833C6.25 25.5262 6.25 25.9976 6.54289 26.2905C6.83579 26.5833 7.30719 26.5833 8.25 26.5833H12.5V21.5417C12.5 20.9894 12.9477 20.5417 13.5 20.5417H16.5C17.0523 20.5417 17.5 20.9894 17.5 21.5417V26.5833H21.75C22.6928 26.5833 23.1642 26.5833 23.4571 26.2905C23.75 25.9976 23.75 25.5262 23.75 24.5833V16.0833C23.75 15.5923 23.75 15.1651 23.7397 14.7916C23.3582 14.7911 23.0035 14.7876 22.697 14.7636C22.3053 14.7329 21.8814 14.6627 21.4533 14.4627C21.1517 14.3218 20.873 14.1392 20.625 13.9214C20.1805 14.3118 19.6376 14.5891 19.0413 14.7156C18.6761 14.793 18.2834 14.7924 17.9094 14.7918H17.9094L17.8125 14.7917L17.7156 14.7918H17.7156C17.3416 14.7924 16.9489 14.793 16.5837 14.7156C15.9874 14.5891 15.4445 14.3118 15 13.9214C14.5555 14.3118 14.0126 14.5891 13.4163 14.7156C13.0511 14.793 12.6584 14.7924 12.2844 14.7918H12.2844L12.1875 14.7917L12.0906 14.7918H12.0906C11.7166 14.7924 11.3239 14.793 10.9587 14.7156C10.3624 14.5891 9.81951 14.3118 9.375 13.9214C9.12698 14.1392 8.84832 14.3218 8.54666 14.4627C8.11857 14.6627 7.69467 14.7329 7.30304 14.7636C6.99645 14.7876 6.64179 14.7911 6.26035 14.7916ZM14.5 26.5833H15.5V22.5417H14.5V26.5833Z" fill="white"/>
</svg>
